<svg preserveAspectRatio="none" overflow="visible" style="display: block;" width="171.121" height="104.328" viewBox="0 0 171.121 104.328" fill="none" xmlns="http://www.w3.org/2000/svg">
<g id="Frame 2330">
<path id="Union" d="M170.517 1.00781H157.916L134.43 38.707C137.353 37.3966 140.377 36.0863 143.502 34.9775L143.603 35.8848C140.478 37.0943 136.95 38.606 133.422 40.2188L126.567 51.3076C111.75 75.0964 93.5045 104.328 76.167 104.328C71.3289 104.328 69.3135 102.11 69.3135 97.877C69.3135 89.8461 76.1378 79.5687 86.9932 69.25H69.5781L70.1826 68.2412H81.7744L102.237 35.4814H83.8916L74.0137 51.3076C65.4458 65.0163 55.8694 74.7938 39.54 74.7939C29.2584 74.7939 22 67.838 22 59.0684C22.0003 43.8479 36.5157 34.4737 56.877 34.4736H57.8857C50.9307 32.4577 46.797 27.6194 46.7969 20.9668C46.7969 7.45965 62.6228 6.2693e-05 84.8994 0H171.121L170.517 1.00781ZM122.233 44.957C109.909 51.9382 98.6345 60.0991 89.7646 68.2412H101.935L101.33 69.25H88.6787C77.4282 79.8123 70.3213 90.2596 70.3213 97.9775C70.3213 101.808 72.2362 103.32 75.5625 103.32C87.6585 103.32 98.5451 82.9586 118.302 51.3076L122.233 44.957ZM56.5752 35.4814C36.8186 35.4814 23.0091 44.4526 23.0088 59.0684C23.0088 67.233 29.8627 73.785 39.4385 73.7852C50.2241 73.7852 55.8695 66.8305 66.7559 49.5938L75.626 35.4814H56.5752ZM162.434 62.2812C164.822 62.2812 166.759 64.2172 166.759 66.6055C166.759 68.9939 164.822 70.9307 162.434 70.9307C160.045 70.9304 158.109 68.9938 158.109 66.6055C158.11 64.2174 160.046 62.2815 162.434 62.2812ZM85.5049 68.2412H88.0684C89.3053 67.0929 90.5903 65.9443 91.9209 64.7998L85.5049 68.2412ZM92.6895 64.1455C101.38 56.7742 111.907 49.5677 123.241 43.3438L146.728 5.74512L155.194 1.00781H132.175L92.6895 64.1455ZM84.8994 1.00781C63.026 1.00787 47.8057 8.26605 47.8057 20.9668C47.8059 29.2322 54.761 34.4736 65.748 34.4736H76.2305L94.1729 5.74512L102.943 1.00781H84.8994ZM84.4961 34.4736H102.943L120.886 5.74512L129.554 1.00781H105.463L84.4961 34.4736Z" fill="#161716"/>
</g>
</svg>
